<?xml version="1.0" ?><svg width="64px" height="64px" viewBox="0 0 64 64" data-name="Layer 1" id="Layer_1" xmlns="http://www.w3.org/2000/svg"><defs><style>.cls-1{fill:black;}.cls-2{fill:#00d7df;}</style></defs><title/><path class="cls-1" d="M32,60a28.29,28.29,0,0,1-7.45-1,2,2,0,0,1,1.06-3.86,24,24,0,1,0-10.44-6A2,2,0,0,1,12.37,52,28,28,0,1,1,32,60Z"/><path class="cls-2" d="M36.26,34h-18a2,2,0,0,1,0-4h18a2,2,0,0,1,0,4Z"/><path class="cls-2" d="M37.26,42.49a2,2,0,0,1-1.42-3.42L42.91,32l-7.07-7.07a2,2,0,0,1,2.83-2.83l8.49,8.49a2,2,0,0,1,0,2.82L38.67,41.9A2,2,0,0,1,37.26,42.49Z"/></svg>