<?xml version="1.0" encoding="iso-8859-1"?>
<!-- Generator: Adobe Illustrator 19.0.0, SVG Export Plug-In . SVG Version: 6.00 Build 0)  -->
<svg version="1.1" id="Layer_1" xmlns="http://www.w3.org/2000/svg" xmlns:xlink="http://www.w3.org/1999/xlink" x="0px" y="0px"
	 viewBox="0 0 512 512" style="enable-background:new 0 0 512 512;" xml:space="preserve">
<g transform="translate(0 1)">
	<path style=":#DB4D6C;" d="M418.133,344.6c0-18.773,15.36-34.133,34.133-34.133c-18.773,0-34.133-15.36-34.133-34.133
		c0,18.773-15.36,34.133-34.133,34.133C402.773,310.467,418.133,325.827,418.133,344.6"/>
	<g>
		<path style="fill:#FFDD09;" d="M76.8,323.267c0,5.12-3.413,8.533-8.533,8.533s-8.533-3.413-8.533-8.533
			c0-5.12,3.413-8.533,8.533-8.533S76.8,318.147,76.8,323.267"/>
		<path style="fill:#FFDD09;" d="M366.933,75.8c-5.12,0-8.533-3.413-8.533-8.533V33.133c0-5.12,3.413-8.533,8.533-8.533
			s8.533,3.413,8.533,8.533v34.133C375.467,72.387,372.053,75.8,366.933,75.8z"/>
		<path style="fill:#FFDD09;" d="M384,58.733h-34.133c-5.12,0-8.533-3.413-8.533-8.533s3.413-8.533,8.533-8.533H384
			c5.12,0,8.533,3.413,8.533,8.533S389.12,58.733,384,58.733z"/>
	</g>
	<polygon style="fill:#54C9FD;" points="110.933,101.4 85.333,75.8 110.933,50.2 136.533,75.8 	"/>
	<path style="fill:#FFDD09;" d="M307.2,317.293V67.267c0-33.28-26.453-59.733-59.733-59.733s-59.733,26.453-59.733,59.733v250.027
		c-25.6,18.773-42.667,48.64-42.667,81.92c-0.853,54.613,43.52,101.547,98.133,103.253c58.88,1.707,106.667-44.373,106.667-102.4
		C349.867,365.933,332.8,335.213,307.2,317.293"/>
	<path style="fill:#FD9808;" d="M315.733,325.827V75.8c0-33.28-26.453-59.733-59.733-59.733c-4.267,0-8.533,0.853-12.8,1.707
		c26.453,5.973,46.933,29.013,46.933,58.027v250.027c25.6,18.773,42.667,48.64,42.667,82.773c0,52.053-52.053,87.893-102.4,93.867
		c3.413,0,5.973,0.853,9.387,0.853c58.027,2.56,106.667-36.693,110.933-94.72C352.427,374.467,341.333,343.747,315.733,325.827"/>
	<path style="fill:#FFFFFF;" d="M180.053,325.827V75.8c0-33.28,26.453-59.733,59.733-59.733c4.267,0,8.533,0.853,12.8,1.707
		c-26.453,5.973-46.933,29.867-46.933,58.027v250.027c-25.6,18.773-42.667,48.64-42.667,82.773c0,52.053,52.053,87.893,102.4,93.867
		c-3.413,0-5.973,0.853-9.387,0.853c-58.027,2.56-106.667-36.693-110.933-94.72C142.507,374.467,153.6,343.747,180.053,325.827"/>
	<g>
		<path style="fill:#FFDD09;" d="M324.267,306.2V67.267c0-33.28-26.453-59.733-59.733-59.733c-4.267,0-8.533,0.853-12.8,1.707
			c26.453,5.973,46.933,29.013,46.933,58.027v250.027c25.6,18.773,42.667,48.64,42.667,82.773c0,52.053-52.053,87.893-102.4,93.867
			c3.413,0,5.973,0.853,9.387,0.853c58.027,2.56,115.2-36.693,119.467-94.72C369.493,365.933,349.867,324.973,324.267,306.2"/>
		<path style="fill:#FFDD09;" d="M244.907,468.333c-35.84-1.707-65.707-33.28-65.707-69.12c0-22.187,10.24-41.813,28.16-54.613
			l14.507-10.24V280.6c0-14.507,11.093-25.6,25.6-25.6s25.6,11.093,25.6,25.6v53.76l14.507,10.24
			c17.92,12.8,28.16,33.28,28.16,55.467c0,17.92-6.827,34.987-19.627,48.64c-13.653,12.8-30.72,19.627-48.64,19.627
			C247.467,468.333,245.76,468.333,244.907,468.333"/>
	</g>
	<path d="M247.467,511c-1.707,0-2.56,0-4.267,0c-59.733-2.56-107.52-52.053-106.667-111.787c0-33.28,16.213-65.707,42.667-86.187
		V67.267C179.2,29.72,209.92-1,247.467-1s68.267,30.72,68.267,68.267v245.76c26.453,21.333,42.667,52.907,42.667,87.04
		c0,30.72-11.947,58.88-34.133,80.213C303.787,499.907,276.48,511,247.467,511z M247.467,16.067c-28.16,0-51.2,23.04-51.2,51.2
		v250.027c0,2.56-1.707,5.12-3.413,6.827c-23.893,17.067-39.253,45.227-39.253,75.093c-0.853,50.347,40.107,93.013,90.453,94.72
		c25.6,0.853,50.347-8.533,69.12-26.453c17.92-17.92,28.16-41.813,28.16-67.413c0-29.867-14.507-58.88-39.253-75.947
		c-2.56-1.707-3.413-4.267-3.413-6.827V67.267C298.667,39.107,275.627,16.067,247.467,16.067z"/>
	<path d="M247.467,476.867c0,0-1.707,0-3.413,0l0,0c-40.107-1.707-74.24-36.693-73.387-77.653c0-24.747,11.947-46.933,32.427-61.44
		l10.24-7.68V280.6c0-18.773,15.36-34.133,34.133-34.133S281.6,261.827,281.6,280.6v49.493l10.24,7.68
		c20.48,14.507,32.427,37.547,32.427,62.293c0,20.48-7.68,40.107-22.187,54.613C287.573,469.187,267.947,476.867,247.467,476.867z
		 M244.907,459.8h2.56c16.213,0,30.72-5.973,41.813-17.067c11.093-11.093,17.067-26.453,17.067-42.667
		c0-18.773-9.387-37.547-24.747-48.64l-14.507-10.24c-2.56-1.707-3.413-4.267-3.413-6.827V280.6c0-9.387-7.68-17.067-17.067-17.067
		c-9.387,0-17.067,7.68-17.067,17.067v53.76c0,2.56-1.707,5.12-3.413,6.827l-14.507,10.24
		c-15.36,11.093-24.747,29.013-24.747,47.787C187.733,430.787,213.333,458.093,244.907,459.8z"/>
	<path d="M247.467,92.867h-59.733c-5.12,0-8.533-3.413-8.533-8.533s3.413-8.533,8.533-8.533h59.733c5.12,0,8.533,3.413,8.533,8.533
		S252.587,92.867,247.467,92.867z"/>
	<path d="M221.867,127h-34.133c-5.12,0-8.533-3.413-8.533-8.533s3.413-8.533,8.533-8.533h34.133c5.12,0,8.533,3.413,8.533,8.533
		S226.987,127,221.867,127z"/>
	<path d="M247.467,161.133h-59.733c-5.12,0-8.533-3.413-8.533-8.533c0-5.12,3.413-8.533,8.533-8.533h59.733
		c5.12,0,8.533,3.413,8.533,8.533C256,157.72,252.587,161.133,247.467,161.133z"/>
	<path d="M221.867,195.267h-34.133c-5.12,0-8.533-3.413-8.533-8.533c0-5.12,3.413-8.533,8.533-8.533h34.133
		c5.12,0,8.533,3.413,8.533,8.533C230.4,191.853,226.987,195.267,221.867,195.267z"/>
	<path d="M247.467,229.4h-59.733c-5.12,0-8.533-3.413-8.533-8.533c0-5.12,3.413-8.533,8.533-8.533h59.733
		c5.12,0,8.533,3.413,8.533,8.533C256,225.987,252.587,229.4,247.467,229.4z"/>
	<g>
		<path style="fill:#020202;" d="M418.133,353.133c-5.12,0-8.533-3.413-8.533-8.533c0-14.507-11.093-25.6-25.6-25.6
			c-5.12,0-8.533-3.413-8.533-8.533c0-5.12,3.413-8.533,8.533-8.533c14.507,0,25.6-11.093,25.6-25.6c0-5.12,3.413-8.533,8.533-8.533
			s8.533,3.413,8.533,8.533c0,14.507,11.093,25.6,25.6,25.6c5.12,0,8.533,3.413,8.533,8.533c0,5.12-3.413,8.533-8.533,8.533
			c-14.507,0-25.6,11.093-25.6,25.6C426.667,349.72,423.253,353.133,418.133,353.133z M409.6,310.467
			c3.413,2.56,5.973,5.12,8.533,8.533c2.56-3.413,5.12-5.973,8.533-8.533c-3.413-2.56-5.973-5.12-8.533-8.533
			C415.573,305.347,413.013,307.907,409.6,310.467z"/>
		<path style="fill:#020202;" d="M358.4,67.267c-5.12,0-8.533-3.413-8.533-8.533V24.6c0-5.12,3.413-8.533,8.533-8.533
			s8.533,3.413,8.533,8.533v34.133C366.933,63.853,363.52,67.267,358.4,67.267z"/>
		<path style="fill:#020202;" d="M375.467,50.2h-34.133c-5.12,0-8.533-3.413-8.533-8.533s3.413-8.533,8.533-8.533h34.133
			c5.12,0,8.533,3.413,8.533,8.533S380.587,50.2,375.467,50.2z"/>
		<path style="fill:#020202;" d="M116.907,107.373H104.96l-25.6-25.6V69.827l25.6-25.6h11.947l25.6,25.6v11.947L116.907,107.373z
			 M97.28,75.8l13.653,13.653L124.587,75.8l-13.653-13.653L97.28,75.8z"/>
		<path style="fill:#020202;" d="M68.267,323.267c0,5.12-3.413,8.533-8.533,8.533s-8.533-3.413-8.533-8.533
			c0-5.12,3.413-8.533,8.533-8.533S68.267,318.147,68.267,323.267"/>
	</g>
</g>
<g>
</g>
<g>
</g>
<g>
</g>
<g>
</g>
<g>
</g>
<g>
</g>
<g>
</g>
<g>
</g>
<g>
</g>
<g>
</g>
<g>
</g>
<g>
</g>
<g>
</g>
<g>
</g>
<g>
</g>
</svg>
