<?xml version="1.0" encoding="iso-8859-1"?>
<!-- Generator: Adobe Illustrator 19.0.0, SVG Export Plug-In . SVG Version: 6.00 Build 0)  -->
<svg version="1.1" id="Layer_1" xmlns="http://www.w3.org/2000/svg" xmlns:xlink="http://www.w3.org/1999/xlink" x="0px" y="0px"
	 viewBox="0 0 512 512" style="enable-background:new 0 0 512 512;" xml:space="preserve">
<path d="M169.216,74.163c-6.379,0-12.109-4.451-13.483-10.941l-3.809-17.995c-1.578-7.454,3.185-14.775,10.639-16.353
	c7.455-1.578,14.775,3.187,16.353,10.639l3.809,17.995c1.578,7.454-3.185,14.775-10.639,16.353
	C171.124,74.066,170.162,74.163,169.216,74.163z"/>
<path d="M13.785,289.203c-6.381,0-12.11-4.451-13.483-10.941c-1.578-7.454,3.187-14.775,10.639-16.353l17.995-3.809
	c7.454-1.581,14.775,3.187,16.353,10.639c1.578,7.454-3.187,14.775-10.639,16.353l-17.995,3.809
	C15.692,289.106,14.731,289.203,13.785,289.203z"/>
<path d="M303.295,99.132c-2.578,0-5.187-0.722-7.51-2.234c-6.386-4.155-8.193-12.702-4.039-19.086l10.031-15.418
	c4.154-6.385,12.698-8.196,19.088-4.039c6.386,4.155,8.193,12.702,4.039,19.086l-10.031,15.418
	C312.228,96.922,307.806,99.132,303.295,99.132z"/>
<path d="M56.751,151.314c-2.58,0-5.187-0.722-7.51-2.234L33.823,139.05c-6.386-4.155-8.195-12.702-4.039-19.086
	c4.154-6.386,12.702-8.196,19.086-4.039l15.418,10.03c6.386,4.155,8.195,12.702,4.039,19.086
	C65.684,149.104,61.263,151.314,56.751,151.314z"/>
<path style="fill:#00D7DF;" d="M477.235,348.825c8.626-8.858,13.949-20.952,13.949-34.293c0-27.157-22.015-49.171-49.171-49.171
	c-1.963,0-3.896,0.128-5.8,0.352c-13.638-37.839-49.85-64.895-92.39-64.895c-38.29,0-71.437,21.931-87.629,53.905
	c-13.201-11.259-30.313-18.067-49.025-18.067c-41.762,0-75.619,33.856-75.619,75.619c0,8.513,1.428,16.69,4.023,24.326
	c-20.013,12.838-33.284,35.269-33.284,60.812l0,0c0,39.885,32.334,72.219,72.219,72.219h144.742h27.162h81.159
	c39.01,0,70.633-31.623,70.633-70.633C498.204,379.362,490.175,361.618,477.235,348.825z"/>
<path style="fill:#ffdd09;" d="M132.958,338.396c0.864-0.608,1.724-1.222,2.616-1.793c-2.595-7.637-4.023-15.813-4.023-24.326
	c0-41.762,33.855-75.619,75.619-75.619c18.711,0,35.823,6.808,49.025,18.067c14.025-27.695,40.775-47.844,72.567-52.744
	c-17.245-64.857-82.508-105.507-148.914-91.452c-68.577,14.515-112.404,81.874-97.889,150.451
	C88.858,293.586,107.711,320.591,132.958,338.396z"/>
<path d="M495.122,348.37c6.416-10.028,9.858-21.69,9.858-33.838c0-33.612-26.473-61.157-59.662-62.881
	c-18.239-39.03-57.826-64.619-101.473-64.628c-0.007,0-0.014-0.001-0.021-0.001c-0.022,0-0.044,0.001-0.066,0.001
	c-1.719,0.001-3.427,0.052-5.131,0.13c-0.017,0.001-0.032,0-0.048,0.001c-23.44-65.657-92.145-104.821-161.587-90.123
	c-36.773,7.784-68.312,29.419-88.81,60.925c-20.499,31.505-27.502,69.107-19.718,105.88c6.171,29.156,21.273,55.238,43.083,75.006
	c-14.67,15.717-23.05,36.47-23.05,58.573c0,47.428,38.585,86.015,86.015,86.015h253.059C474.125,483.429,512,445.554,512,399
	C512,380.481,506.077,362.895,495.122,348.37z M95.453,258.122c-12.916-61.025,26.224-121.182,87.25-134.097
	c7.905-1.673,15.792-2.478,23.573-2.478c45.574,0,87.258,27.644,104.606,70.382c-23.742,7.258-44.49,22.266-58.898,42.988
	c-0.48-0.277-0.967-0.541-1.451-0.81c-0.367-0.203-0.728-0.414-1.098-0.613c-0.506-0.272-1.021-0.528-1.533-0.79
	c-0.357-0.183-0.712-0.374-1.072-0.553c-0.611-0.302-1.229-0.589-1.847-0.877c-0.265-0.124-0.527-0.255-0.793-0.377
	c-0.653-0.297-1.312-0.578-1.97-0.858c-0.239-0.102-0.473-0.211-0.712-0.31c-0.8-0.332-1.607-0.65-2.417-0.96
	c-0.101-0.039-0.199-0.081-0.299-0.119c-0.853-0.323-1.711-0.629-2.573-0.926c-0.059-0.021-0.119-0.044-0.179-0.065
	c-0.902-0.308-1.809-0.6-2.721-0.88c-0.021-0.007-0.043-0.014-0.063-0.021c-0.916-0.28-1.836-0.544-2.761-0.795
	c-0.018-0.004-0.034-0.01-0.052-0.015c-0.887-0.24-1.78-0.464-2.675-0.676c-0.055-0.014-0.109-0.029-0.164-0.041
	c-0.899-0.211-1.802-0.407-2.708-0.59c-0.052-0.011-0.103-0.023-0.156-0.034c-1.862-0.374-3.74-0.687-5.629-0.942
	c-0.055-0.007-0.109-0.017-0.164-0.025c-3.888-0.517-7.821-0.781-11.777-0.781c-1.507,0-3.003,0.04-4.492,0.115
	c-0.504,0.025-0.999,0.076-1.501,0.109c-0.982,0.065-1.965,0.127-2.937,0.223c-0.59,0.059-1.173,0.143-1.76,0.214
	c-0.873,0.105-1.748,0.203-2.613,0.332c-0.622,0.094-1.236,0.211-1.856,0.317c-0.819,0.141-1.64,0.276-2.453,0.439
	c-0.635,0.127-1.261,0.276-1.89,0.417c-0.782,0.175-1.566,0.346-2.341,0.542c-0.639,0.161-1.269,0.342-1.902,0.516
	c-0.753,0.208-1.508,0.414-2.254,0.641c-0.633,0.193-1.26,0.403-1.887,0.61c-0.733,0.241-1.464,0.483-2.188,0.742
	c-0.626,0.225-1.244,0.464-1.864,0.701c-0.709,0.272-1.418,0.548-2.119,0.837c-0.618,0.255-1.228,0.523-1.839,0.792
	c-0.688,0.302-1.373,0.61-2.053,0.93c-0.604,0.284-1.203,0.578-1.799,0.876c-0.669,0.334-1.335,0.673-1.995,1.024
	c-0.589,0.313-1.174,0.632-1.756,0.957c-0.648,0.363-1.291,0.733-1.93,1.111c-0.575,0.341-1.146,0.687-1.713,1.04
	c-0.628,0.39-1.249,0.79-1.867,1.197c-0.557,0.367-1.112,0.737-1.661,1.116c-0.608,0.419-1.209,0.85-1.806,1.284
	c-0.538,0.392-1.073,0.784-1.603,1.186c-0.588,0.448-1.166,0.908-1.742,1.37c-0.517,0.415-1.036,0.829-1.544,1.255
	c-0.567,0.476-1.122,0.964-1.678,1.453c-0.495,0.437-0.992,0.87-1.479,1.319c-0.548,0.505-1.083,1.025-1.618,1.542
	c-0.47,0.455-0.944,0.906-1.404,1.371c-0.53,0.537-1.044,1.088-1.562,1.638c-0.441,0.47-0.89,0.934-1.322,1.414
	c-0.513,0.57-1.008,1.156-1.508,1.74c-0.411,0.481-0.832,0.956-1.233,1.446c-0.502,0.613-0.982,1.242-1.468,1.868
	c-0.374,0.481-0.757,0.953-1.12,1.442c-0.509,0.683-0.993,1.385-1.483,2.083c-0.316,0.451-0.644,0.893-0.953,1.349
	c-0.608,0.902-1.188,1.824-1.763,2.748c-0.168,0.269-0.348,0.53-0.512,0.802c-0.726,1.195-1.424,2.409-2.094,3.638
	c-0.246,0.451-0.47,0.915-0.708,1.37c-0.415,0.795-0.836,1.587-1.229,2.395c-0.259,0.535-0.497,1.083-0.745,1.624
	c-0.344,0.746-0.694,1.489-1.017,2.246c-0.246,0.574-0.468,1.159-0.702,1.738c-0.298,0.739-0.6,1.476-0.879,2.225
	c-0.225,0.603-0.428,1.217-0.639,1.827c-0.257,0.739-0.517,1.479-0.755,2.228c-0.199,0.625-0.378,1.258-0.563,1.89
	c-0.219,0.748-0.44,1.494-0.64,2.25c-0.171,0.643-0.323,1.294-0.479,1.942c-0.182,0.756-0.364,1.512-0.527,2.275
	c-0.141,0.659-0.265,1.323-0.39,1.987c-0.145,0.767-0.288,1.534-0.414,2.308c-0.109,0.672-0.203,1.346-0.297,2.022
	c-0.108,0.778-0.211,1.556-0.298,2.341c-0.076,0.683-0.141,1.369-0.201,2.056c-0.039,0.441-0.097,0.877-0.13,1.322
	C106.939,291.94,99.179,275.723,95.453,258.122z M427.571,455.837H174.508c-32.214,0-58.424-26.209-58.424-58.424
	c0-19.082,9.193-36.693,24.703-47.666c0.04-0.028,0.081-0.051,0.12-0.079l0.23-0.161c0.624-0.44,1.243-0.883,1.887-1.295
	c0.07-0.046,0.135-0.098,0.204-0.143c1.244-0.831,2.325-1.831,3.21-2.963c0.043-0.054,0.077-0.112,0.119-0.166
	c0.188-0.248,0.372-0.498,0.544-0.756c0.041-0.063,0.076-0.13,0.116-0.195c0.363-0.574,0.69-1.169,0.964-1.785
	c0.083-0.186,0.15-0.379,0.225-0.568c0.062-0.16,0.132-0.316,0.189-0.479c0.061-0.172,0.106-0.348,0.159-0.521
	c0.057-0.185,0.12-0.368,0.17-0.556c0.087-0.334,0.159-0.672,0.221-1.011c0.006-0.03,0.014-0.059,0.019-0.09
	c0.389-2.224,0.237-4.562-0.528-6.814c-2.182-6.422-3.289-13.113-3.289-19.888c0-6.392,0.975-12.56,2.784-18.363
	c7.84-25.151,31.341-43.459,59.038-43.459c11.311,0,22.353,3.127,31.937,8.918c-4.684,12.331-7.27,25.685-7.27,39.638
	c0,7.619,6.176,13.796,13.796,13.796s13.796-6.176,13.796-13.796c0-14.065,3.477-27.325,9.588-38.999
	c0.429-0.821,0.873-1.632,1.327-2.435c0.332-0.586,0.662-1.174,1.008-1.752c0.444-0.745,0.911-1.472,1.377-2.2
	c0.372-0.581,0.731-1.17,1.117-1.741c0.771-1.142,1.57-2.262,2.392-3.362c0.51-0.682,1.048-1.342,1.578-2.007
	c0.403-0.506,0.803-1.014,1.215-1.511c0.557-0.666,1.13-1.32,1.707-1.969c0.417-0.47,0.839-0.935,1.266-1.395
	c0.592-0.637,1.188-1.268,1.799-1.887c0.444-0.45,0.901-0.887,1.355-1.327c0.618-0.599,1.232-1.202,1.868-1.781
	c0.534-0.487,1.087-0.951,1.633-1.422c1.021-0.884,2.062-1.744,3.125-2.578c0.637-0.501,1.272-1.004,1.923-1.486
	c0.567-0.419,1.148-0.822,1.726-1.228c0.688-0.483,1.38-0.96,2.083-1.422c0.556-0.367,1.117-0.726,1.682-1.08
	c0.786-0.491,1.582-0.967,2.385-1.432c0.504-0.292,1.004-0.589,1.513-0.872c1.075-0.595,2.165-1.162,3.265-1.708
	c0.255-0.127,0.504-0.266,0.76-0.39c1.391-0.673,2.801-1.306,4.228-1.904c0.327-0.137,0.661-0.258,0.989-0.39
	c1.112-0.448,2.232-0.879,3.365-1.28c0.451-0.16,0.908-0.309,1.362-0.462c1.047-0.35,2.101-0.683,3.163-0.992
	c0.464-0.135,0.928-0.27,1.396-0.397c1.144-0.312,2.297-0.596,3.457-0.861c0.368-0.084,0.734-0.177,1.105-0.255
	c1.545-0.33,3.101-0.624,4.673-0.866c0.021-0.003,0.04-0.01,0.061-0.012c0.066-0.01,0.131-0.021,0.197-0.03
	c1.338-0.203,2.686-0.377,4.045-0.516c0.066-0.007,0.134-0.011,0.2-0.018c1.193-0.119,2.395-0.206,3.602-0.275
	c0.33-0.018,0.659-0.037,0.989-0.051c1.254-0.057,2.514-0.095,3.783-0.097c0.028,0,0.055-0.001,0.084-0.001
	c35.473,0,67.387,22.415,79.411,55.778c2.174,6.033,8.221,9.776,14.588,9.024c1.478-0.174,2.847-0.258,4.19-0.258
	c19.507,0,35.376,15.869,35.376,35.375c0,9.261-3.565,18.021-10.036,24.668c-5.288,5.43-5.205,14.108,0.185,19.435
	c10.881,10.755,16.872,25.09,16.872,40.364C484.408,430.34,458.911,455.837,427.571,455.837z"/>
<path d="M388.943,415.403h-201.55c-7.619,0-13.796-6.176-13.796-13.796s6.176-13.796,13.796-13.796h201.55
	c7.618,0,13.796,6.176,13.796,13.796S396.561,415.403,388.943,415.403z"/>
<path d="M429.661,415.41c-0.911,0-1.809-0.097-2.704-0.276c-0.883-0.179-1.753-0.441-2.58-0.786
	c-0.826-0.345-1.628-0.773-2.387-1.269c-0.759-0.51-1.462-1.076-2.097-1.711c-2.566-2.58-4.042-6.125-4.042-9.754
	c0-3.642,1.475-7.201,4.042-9.767c0.635-0.635,1.338-1.214,2.097-1.711c0.76-0.497,1.56-0.924,2.387-1.269
	c0.826-0.345,1.697-0.607,2.58-0.786c1.78-0.359,3.614-0.359,5.394,0c0.883,0.179,1.752,0.441,2.58,0.786
	c0.828,0.345,1.628,0.773,2.385,1.269c0.745,0.497,1.449,1.076,2.083,1.711c2.58,2.566,4.044,6.125,4.044,9.767
	c0,3.628-1.464,7.174-4.044,9.754c-0.635,0.635-1.338,1.2-2.083,1.711c-0.759,0.497-1.559,0.924-2.385,1.269
	c-0.829,0.345-1.697,0.607-2.58,0.786C431.455,415.314,430.559,415.41,429.661,415.41z"/>
<g>
</g>
<g>
</g>
<g>
</g>
<g>
</g>
<g>
</g>
<g>
</g>
<g>
</g>
<g>
</g>
<g>
</g>
<g>
</g>
<g>
</g>
<g>
</g>
<g>
</g>
<g>
</g>
<g>
</g>
</svg>
